<?xml version="1.0" encoding="utf-8"?>
<!-- Generator: Adobe Illustrator 26.0.1, SVG Export Plug-In . SVG Version: 6.00 Build 0)  -->
<svg version="1.1" id="Capa_1" xmlns="http://www.w3.org/2000/svg" xmlns:xlink="http://www.w3.org/1999/xlink" x="0px" y="0px"
	 viewBox="0 0 24 24" style="enable-background:new 0 0 24 24;" xml:space="preserve">
<style type="text/css">
	.st0{enable-background:new    ;}
	.st1{fill:#c74200;}
</style>
<g class="st0">
	<path class="st1" d="M1.21,4.71C0.74,4.23,0.5,3.63,0.5,2.91c0-0.74,0.23-1.34,0.7-1.81c0.47-0.47,1.07-0.7,1.81-0.7
		c0.74,0,1.34,0.23,1.81,0.7c0.47,0.47,0.7,1.07,0.7,1.81c0,0.72-0.24,1.32-0.71,1.79C4.33,5.19,3.73,5.42,3.01,5.42
		C2.29,5.42,1.69,5.19,1.21,4.71z M0.83,23.48c-0.07-0.07-0.11-0.16-0.11-0.27V7.62c0-0.11,0.04-0.2,0.11-0.27
		C0.91,7.27,1,7.23,1.1,7.23h3.72c0.11,0,0.2,0.04,0.27,0.11C5.16,7.42,5.2,7.51,5.2,7.62v15.6c0,0.11-0.04,0.2-0.11,0.27
		c-0.07,0.07-0.16,0.11-0.27,0.11H1.1C1,23.6,0.91,23.56,0.83,23.48z"/>
	<path class="st1" d="M21.94,8.57c1.04,1.04,1.56,2.45,1.56,4.22v10.42c0,0.11-0.04,0.2-0.11,0.27c-0.07,0.07-0.16,0.11-0.27,0.11
		H19.4c-0.11,0-0.2-0.04-0.27-0.11c-0.07-0.07-0.11-0.16-0.11-0.27v-9.5c0-0.85-0.24-1.54-0.71-2.07c-0.48-0.53-1.11-0.79-1.89-0.79
		c-0.78,0-1.41,0.27-1.89,0.79c-0.48,0.53-0.71,1.22-0.71,2.07v9.5c0,0.11-0.04,0.2-0.11,0.27c-0.07,0.07-0.16,0.11-0.27,0.11H9.71
		c-0.11,0-0.2-0.04-0.27-0.11c-0.07-0.07-0.11-0.16-0.11-0.27V7.65c0-0.11,0.04-0.2,0.11-0.27C9.52,7.3,9.61,7.27,9.71,7.27h3.72
		c0.11,0,0.2,0.04,0.27,0.11c0.07,0.07,0.11,0.16,0.11,0.27v1.11c0,0.06,0.02,0.11,0.06,0.13c0.04,0.02,0.07,0.01,0.1-0.03
		c0.87-1.23,2.16-1.84,3.88-1.84C19.54,7.01,20.91,7.53,21.94,8.57z"/>
</g>
</svg>
