<?xml version="1.0" encoding="utf-8"?>
<!-- Generator: Adobe Illustrator 26.0.1, SVG Export Plug-In . SVG Version: 6.00 Build 0)  -->
<svg version="1.1" id="Capa_1" xmlns="http://www.w3.org/2000/svg" xmlns:xlink="http://www.w3.org/1999/xlink" x="0px" y="0px"
	 viewBox="0 0 24 24" style="enable-background:new 0 0 24 24;" xml:space="preserve">
<style type="text/css">
	.st0{fill:#c74200;}
</style>
<path class="st0" d="M12.02,0.53C5.67,0.53,0.5,5.67,0.5,12.02c0,5.48,3.86,10.08,9.02,11.25V14.6h-1.9v-2.76h1.9v-0.95
	c0-1.07,0.12-1.93,0.36-2.43c0.24-0.57,0.65-0.96,1.28-1.31c0.62-0.35,1.39-0.5,2.37-0.5s1.93,0.09,2.85,0.41l-0.45,2.41
	c-0.53-0.15-1.1-0.21-1.57-0.21c-0.51,0-0.86,0.15-1.04,0.36c-0.24,0.24-0.33,0.65-0.33,1.33v0.89h2.52v2.76h-2.52v8.87
	C18.87,23,23.5,18.04,23.5,12.02C23.5,5.67,18.37,0.53,12.02,0.53z"/>
</svg>
