<?xml version="1.0" encoding="utf-8"?>
<!-- Generator: Adobe Illustrator 26.0.1, SVG Export Plug-In . SVG Version: 6.00 Build 0)  -->
<svg version="1.1" id="Capa_1" xmlns="http://www.w3.org/2000/svg" xmlns:xlink="http://www.w3.org/1999/xlink" x="0px" y="0px"
	 viewBox="0 0 24 24" style="enable-background:new 0 0 24 24;" xml:space="preserve">
<style type="text/css">
	.st0{fill:#c74200;}
</style>
<path id="Trazado_337" class="st0" d="M23,9.13c0-2.67-2.16-4.83-4.83-4.83H5.83C3.16,4.3,1,6.46,1,9.13v5.74
	c0,2.67,2.16,4.83,4.83,4.83h12.34c2.67,0,4.83-2.16,4.83-4.83L23,9.13z M15.74,12.43l-5.54,2.74c-0.22,0.12-0.95-0.04-0.95-0.29
	V9.26c0-0.25,0.74-0.41,0.96-0.28l5.3,2.88C15.73,11.99,15.96,12.31,15.74,12.43L15.74,12.43z"/>
</svg>
