<?xml version="1.0" encoding="utf-8"?>
<!-- Generator: Adobe Illustrator 26.0.1, SVG Export Plug-In . SVG Version: 6.00 Build 0)  -->
<svg version="1.1" id="Capa_1" xmlns="http://www.w3.org/2000/svg" xmlns:xlink="http://www.w3.org/1999/xlink" x="0px" y="0px"
	 viewBox="0 0 1366 2314" style="enable-background:new 0 0 1366 2314;" xml:space="preserve">
<style type="text/css">
	.st0{fill:#BD14F4;}
</style>
<g>
	<path class="st0" d="M1084.4,14l25.2,737.9L53.8,788L28.6,50.1L1084.4,14 M1092.6,3.9L19.8,40.6l25.9,757.6l1072.8-36.7L1092.6,3.9
		L1092.6,3.9z"/>
</g>
<g>
	<path class="st0" d="M1049.6,813l22.3,651.3l-931.8,31.8l-22.3-651.3L1049.6,813 M1056.9,804L110,836.4l22.8,668.6l946.9-32.3
		L1056.9,804L1056.9,804z"/>
</g>
<g>
	<path class="st0" d="M1136,1525l25.2,737.9L105.5,2299l-25.2-737.9L1136,1525 M1144.2,1515.1L71.4,1551.7l25.9,757.5l1072.8-36.7
		L1144.2,1515.1L1144.2,1515.1z"/>
</g>
</svg>
