<?xml version="1.0" encoding="utf-8"?>
<!-- Generator: Adobe Illustrator 26.0.1, SVG Export Plug-In . SVG Version: 6.00 Build 0)  -->
<svg version="1.1" id="Capa_1" xmlns="http://www.w3.org/2000/svg" xmlns:xlink="http://www.w3.org/1999/xlink" x="0px" y="0px"
	 viewBox="0 0 16 16" style="enable-background:new 0 0 16 16;" xml:space="preserve">
<style type="text/css">
	.st0{fill:#FFFFFF;}
</style>
<path class="st0" d="M14.5,3C14.8,3,15,3.2,15,3.5v9c0,0.3-0.2,0.5-0.5,0.5h-13C1.2,13,1,12.8,1,12.5v-9C1,3.2,1.2,3,1.5,3H14.5z
	 M1.5,2C0.7,2,0,2.7,0,3.5v9C0,13.3,0.7,14,1.5,14h13c0.8,0,1.5-0.7,1.5-1.5v-9C16,2.7,15.3,2,14.5,2H1.5z"/>
<path class="st0" d="M7,5.5C7,5.2,7.2,5,7.5,5h5C12.8,5,13,5.2,13,5.5S12.8,6,12.5,6h-5C7.2,6,7,5.8,7,5.5z M5.5,4.6
	c0.2,0.2,0.2,0.5,0,0.7l0,0L4,6.9C3.8,7,3.5,7,3.3,6.9l0,0L2.8,6.4c-0.2-0.2-0.2-0.5,0-0.7s0.5-0.2,0.7,0l0,0l0.1,0.1l1.1-1.1
	C5,4.5,5.3,4.5,5.5,4.6L5.5,4.6z M7,9.5C7,9.2,7.2,9,7.5,9h5C12.8,9,13,9.2,13,9.5S12.8,10,12.5,10h-5C7.2,10,7,9.8,7,9.5z M5.5,8.6
	c0.2,0.2,0.2,0.5,0,0.7l0,0L4,10.9c-0.2,0.2-0.5,0.2-0.7,0l0,0l-0.5-0.5c-0.2-0.2-0.2-0.5,0-0.7s0.5-0.2,0.7,0l0.1,0.1l1.1-1.1
	C5,8.5,5.3,8.5,5.5,8.6L5.5,8.6z"/>
</svg>
