<?xml version="1.0" encoding="utf-8"?>
<!-- Generator: Adobe Illustrator 26.0.1, SVG Export Plug-In . SVG Version: 6.00 Build 0)  -->
<svg version="1.1" id="Capa_1" xmlns="http://www.w3.org/2000/svg" xmlns:xlink="http://www.w3.org/1999/xlink" x="0px" y="0px"
	 viewBox="0 0 16 16" style="enable-background:new 0 0 16 16;" xml:space="preserve">
<style type="text/css">
	.st0{fill:#FFFFFF;}
</style>
<path class="st0" d="M4,0C2.9,0,2,0.9,2,2v1.1L1.1,3.6C0.4,4,0,4.7,0,5.4V14c0,1.1,0.9,2,2,2h12c1.1,0,2-0.9,2-2V5.4
	c0-0.7-0.4-1.4-1.1-1.8L14,3.1V2c0-1.1-0.9-2-2-2H4z M14,4.3l0.5,0.2C14.8,4.7,15,5,15,5.4v0.8l-1,0.6V4.3z M13,7.4L9.2,9.7L8,8.9
	L6.8,9.7L3,7.4V2c0-0.6,0.4-1,1-1h8c0.6,0,1,0.4,1,1V7.4z M2,6.8L1,6.2V5.4C1,5,1.2,4.7,1.5,4.5L2,4.3V6.8z M15,7.4v5.7l-4.8-2.9
	C10.2,10.2,15,7.4,15,7.4z M15,14.3c-0.1,0.4-0.5,0.7-1,0.7H2c-0.5,0-0.8-0.3-1-0.7l7-4.2L15,14.3z M1,13.1V7.4l4.8,2.9L1,13.1
	L1,13.1z"/>
</svg>
