<?xml version="1.0" encoding="utf-8"?>
<!-- Generator: Adobe Illustrator 26.0.1, SVG Export Plug-In . SVG Version: 6.00 Build 0)  -->
<svg version="1.1" id="Capa_1" xmlns="http://www.w3.org/2000/svg" xmlns:xlink="http://www.w3.org/1999/xlink" x="0px" y="0px"
	 viewBox="0 0 16 16" style="enable-background:new 0 0 16 16;" xml:space="preserve">
<style type="text/css">
	.st0{fill-rule:evenodd;clip-rule:evenodd;fill:#C74200;}
</style>
<path class="st0" d="M2,2c0-1.1,0.9-2,2-2h8c1.1,0,2,0.9,2,2v1.1l0.9,0.5C15.6,4,16,4.7,16,5.4V14c0,1.1-0.9,2-2,2H2
	c-1.1,0-2-0.9-2-2V5.4C0,4.7,0.4,4,1.1,3.6L2,3.1V2z M2,4.3L1.5,4.5C1.2,4.7,1,5,1,5.4v0.8l1,0.6V4.3z M3,7.4l3.8,2.2L8,8.9l1.2,0.8
	L13,7.4V2c0-0.6-0.4-1-1-1H4C3.4,1,3,1.4,3,2C3,2,3,7.4,3,7.4z M14,6.8l1-0.6V5.4c0-0.4-0.2-0.7-0.5-0.9L14,4.3V6.8z M8,3
	c1.7-1.7,5.8,1.3,0,5C2.2,4.2,6.3,1.3,8,3z M15,7.4l-4.8,2.9l4.8,2.9C15,13.1,15,7.4,15,7.4z M15,14.3l-7-4.2l-7,4.2
	C1.2,14.7,1.5,15,2,15h12C14.5,15,14.8,14.7,15,14.3L15,14.3z M1,13.1l4.8-2.9L1,7.4V13.1L1,13.1z"/>
</svg>
