<?xml version="1.0" encoding="utf-8"?>
<!-- Generator: Adobe Illustrator 26.0.1, SVG Export Plug-In . SVG Version: 6.00 Build 0)  -->
<svg version="1.1" id="Capa_1" xmlns="http://www.w3.org/2000/svg" xmlns:xlink="http://www.w3.org/1999/xlink" x="0px" y="0px"
	 viewBox="0 0 16 16" style="enable-background:new 0 0 16 16;" xml:space="preserve">
<style type="text/css">
	.st0{fill-rule:evenodd;clip-rule:evenodd;fill:#FFFFFF;}
</style>
<path class="st0" d="M2.9,15.9c-0.2,0.2-0.5,0.2-0.7,0C2.1,15.8,2,15.6,2,15.5V14H0.5C0.2,14,0,13.8,0,13.5c0-0.1,0.1-0.3,0.1-0.4
	l1.5-1.5c0.1-0.1,0.2-0.1,0.4-0.1h1.8L4.3,11C3.6,10.2,3,9.4,2.6,8.7c-0.8-1.6-0.8-3-0.2-4.1c1-2,3.8-2.7,5.6-1.3
	c1.2-1,2.9-0.9,4.2-0.2L13.3,2l-1.1-1.1c-0.2-0.2-0.2-0.5,0-0.7c0-0.1,0.2-0.2,0.3-0.2h3C15.8,0,16,0.2,16,0.5v3
	C16,3.8,15.8,4,15.5,4c-0.1,0-0.3-0.1-0.4-0.1L14,2.7l-1,1c0.2,0.2,0.4,0.5,0.6,0.8c0.6,1.1,0.6,2.5-0.2,4.1s-2.4,3.3-5.1,5.1
	L8,13.9l-0.3-0.2c-0.9-0.6-1.8-1.3-2.7-2.1l-0.5,0.5V14c0,0.1-0.1,0.3-0.1,0.4L2.9,15.9z M5.7,11c0.7,0.6,1.5,1.2,2.3,1.8
	c2.5-1.7,3.8-3.2,4.5-4.5s0.6-2.4,0.2-3.2C11.9,3.4,9.6,3,8.4,4.3L8,4.6L7.6,4.3C6.4,3,4.1,3.4,3.3,5C2.9,5.8,2.8,6.9,3.5,8.2
	C3.8,8.8,4.3,9.5,5,10.3l1.9-1.9c0.2-0.2,0.5-0.2,0.7,0s0.2,0.5,0,0.7L5.7,11z"/>
</svg>
