<?xml version="1.0" encoding="utf-8"?>
<!-- Generator: Adobe Illustrator 26.0.1, SVG Export Plug-In . SVG Version: 6.00 Build 0)  -->
<svg version="1.1" id="Capa_1" xmlns="http://www.w3.org/2000/svg" xmlns:xlink="http://www.w3.org/1999/xlink" x="0px" y="0px"
	 viewBox="0 0 90.3 62.8" style="enable-background:new 0 0 90.3 62.8;" xml:space="preserve">
<style type="text/css">
	.st0{fill:#FFFFFF;}
	.st1{fill:#FF5900;}
</style>
<g id="Capa_2_00000126300076994401483640000012527111516564823692_">
	<path id="Trazado_33_00000003788443914136537860000017187149283284415641_" class="st0" d="M18.2,6.7v32.9c0,3,0,5.4,0,7.1
		c0,0.2,0,0.5,0,0.8c0,1.7-0.2,3.5-0.6,5.1C17,55,15.7,57,13.9,58.4c-1.8,1.5-4,2.4-6.3,2.4c-1.4,0.1-2.9-0.4-3.9-1.3
		c-1-0.8-1.5-2.1-1.5-3.5c0-2.4,1.2-3.6,3.6-3.6c1,0,1.8,0.2,2.5,0.8c0.6,0.6,1,1.4,1,2.3c0,0.8-0.2,1.5-0.8,2.1
		c-0.2,0.2-0.5,0.7-0.6,1.1c0,0.4,0.4,0.6,1,0.6c1.3,0,2.3-0.8,2.9-2.5c0.2-0.8,0.5-3.5,0.5-7.9V6.4c0-1.3-0.4-2.1-1.2-2.5
		c-1-0.2-2-0.2-3.1-0.2c-0.5,0-1,0-1.4-0.1c-0.1,0-0.2-0.2-0.2-0.4c0-0.5,0.4-0.6,1.1-0.6h9.3C18.3,2.6,18.2,3.1,18.2,6.7"/>
	<path id="Trazado_34_00000153683988730694652350000011677955720886461869_" class="st0" d="M52.5,44.1c-1.2,0-2.4,0-3.6-0.2
		c-0.5-0.1-0.8-0.6-1-1.4c-0.1-1.9-0.2-3.8-0.2-5.8V19H39c-0.8,0-1.3,0.1-1.3,0.4c0,0.5,0.8,0.6,2.6,0.6c0.5,0,1,0,1.4,0.1
		c0.2,0.1,0.4,0.5,0.4,1.1v2.1c0.1,1.1,0.2,2.1,0.2,3.2v9.8c0,3-0.4,5.1-1.2,6.4c-1,1.8-2.9,2.9-5,2.7c-2,0-3.5-0.8-4.2-2.5
		c-0.5-1.1-0.6-3.2-0.6-6.4V19c-1.4,0.1-2.7,0.2-4.2,0.2c-0.1,0-0.6,0-1.3-0.1C24.5,19,23.4,19,22.6,19c-0.7,0-1.1,0.1-1.1,0.5
		c0,0.5,0.6,0.6,1.7,0.5H24c1,0,1.5,0.2,1.7,0.5c0.1,0.2,0.2,1.1,0.2,2.6v14.4c0,1.7,0,3.5,0.1,5.1c0.1,0.7,0.5,1.4,1,2
		c1.3,1.8,3.6,2.7,6.7,2.7c3.5,0,6.2-1.3,8.1-4v3.6c0,0.4,0.1,0.5,0.4,0.5c0.1,0,0.4,0,0.5-0.1c2.7-1.3,5.7-2,8.7-2.1
		c1,0,1.4-0.2,1.4-0.5C53.2,44.3,53,44.1,52.5,44.1"/>
	<path id="Trazado_35_00000179603671724046671300000016592737247421431951_" class="st0" d="M85.9,33.2c-1.2-1.2-3.9-2.6-8.3-4.3
		c-2.9-1.1-4.3-2.7-4.3-4.9c0-1.3,0.5-2.5,1.4-3.3c1-1,2.3-1.4,3.6-1.3c1.4,0,2.9,0.5,4,1.4c1.2,1,2,2.3,2.5,3.7
		c0.4,1.3,0.7,1.9,1,1.9c0.2,0,0.5-0.1,0.5-0.4v-0.1v-0.1c-0.2-1.7-0.4-3.2-0.4-4.9c0,0-3.3-1.7-3.8-1.9c-1.2-0.5-2.5-0.7-3.8-0.7
		c-2.3,0-4.4,0.8-6,2.4c-1.5,1.5-2.5,3.7-2.4,6c0,3.6,2.4,6.2,7,8c2.4,1,3.8,1.4,4.3,1.7c0.6,0.4,1.2,0.7,1.7,1.2
		c1.1,1.1,1.7,2.5,1.5,3.9C84.6,42.7,84,44,83,45s-2.4,1.4-3.7,1.3c-2.6,0.1-5.2-1.2-6.8-3.3c-1-1.3-1.5-3-1.7-4.6
		c0-0.5-0.2-0.7-0.6-0.7s-0.5,0.2-0.5,0.7V47c0,0.4,0.1,0.5,0.5,0.5c0.2,0,0.5-0.2,0.7-0.7c0.2-0.8,0.7-1.2,1.3-1.2
		c0.5,0,1.1,0.1,1.4,0.5c2,1.1,3.8,1.5,5.2,1.5c2.4,0,4.6-0.8,6.4-2.6c1.8-1.7,2.7-3.9,2.7-6.3C88.2,36.5,87.4,34.6,85.9,33.2"/>
	<path id="Trazado_36_00000068637229074900157320000003425699606511526545_" class="st0" d="M64.8,45.8c-0.8,0-1.5,0-2.4-0.1
		c-0.2,0-0.4-0.2-0.5-0.5c-0.1-0.7-0.1-1.5-0.1-2.3V7.3c0.1-1.7,0-3.3-0.4-5c0-0.2-0.6-0.4-0.6-0.4l-1.3,0.6
		c-1.8,0.8-3.7,1.3-5.6,1.4c-1.1,0-1.5,0.2-1.5,0.6s0.2,0.6,0.8,0.6h2.3c0.6,0,0.8,0.1,1.1,0.5c0.1,0.7,0.1,1.5,0.1,2.3v32.4
		c0,3.1,0,4.8-0.1,5c0,0.5,0.1,1.5,2.6,1.5h2c2.1,0.1,3.3,0.1,3.3,0.1h0.7c0.6,0,0.8-0.2,0.8-0.6C66.3,45.9,65.7,45.8,64.8,45.8"/>
</g>
<g>
	<path class="st1" d="M25.7,54.1h3.2c2.5,0,4.2,1.6,4.2,4c0,2.3-1.7,4-4.2,4h-3.2V54.1z M28.9,61.3c2.1,0,3.5-1.3,3.5-3.2
		s-1.4-3.2-3.5-3.2h-2.3v6.5H28.9z"/>
	<path class="st1" d="M44.1,61.3V62h-5.6v-7.9h5.4v0.7h-4.6v2.8h4.1v0.7h-4.1v2.9H44.1z"/>
	<path class="st1" d="M48.8,61l0.3-0.6c0.6,0.6,1.6,1,2.6,1c1.5,0,2.1-0.6,2.1-1.4c0-2.2-4.9-0.8-4.9-3.8c0-1.2,0.9-2.2,2.9-2.2
		c0.9,0,1.8,0.3,2.5,0.7l-0.3,0.7c-0.7-0.4-1.5-0.7-2.2-0.7c-1.4,0-2.1,0.6-2.1,1.4c0,2.2,4.9,0.9,4.9,3.7c0,1.2-0.9,2.2-3,2.2
		C50.5,62.1,49.4,61.6,48.8,61z"/>
	<path class="st1" d="M60,54.1h0.8V62H60V54.1z"/>
	<path class="st1" d="M72.4,58h0.8v3c-0.7,0.7-1.8,1-2.9,1c-2.4,0-4.2-1.7-4.2-4s1.8-4,4.2-4c1.2,0,2.2,0.4,2.9,1.1l-0.5,0.5
		c-0.7-0.7-1.5-0.9-2.4-0.9c-2,0-3.4,1.4-3.4,3.3c0,1.9,1.4,3.3,3.4,3.3c0.8,0,1.5-0.2,2.1-0.6V58z"/>
	<path class="st1" d="M85.7,54.1V62H85l-5.1-6.4V62h-0.8v-7.9h0.7l5.1,6.4v-6.4H85.7z"/>
</g>
</svg>
