<?xml version="1.0" encoding="utf-8"?>
<!-- Generator: Adobe Illustrator 26.0.1, SVG Export Plug-In . SVG Version: 6.00 Build 0)  -->
<svg version="1.1" id="Capa_1" xmlns="http://www.w3.org/2000/svg" xmlns:xlink="http://www.w3.org/1999/xlink" x="0px" y="0px"
	 viewBox="0 0 44.2 62.8" style="enable-background:new 0 0 44.2 62.8;" xml:space="preserve">
<style type="text/css">
	.st0{fill:#FF5900;}
	.st1{fill:#FFFFFF;}
	.st2{enable-background:new    ;}
	.st3{display:none;}
	.st4{display:inline;fill:#FFFFFF;}
	.st5{display:inline;fill:#FF5900;}
</style>
<g id="Capa_1_00000048487168493651072960000016805146064390679177_">
	<g id="Grupo_14_00000049906318141723715740000001418545502699859338_" transform="translate(-22 -21)">
		<path id="Trazado_29_00000155868105751546279710000008163400817438501775_" class="st0" d="M45.6,76c-3.2,0-5.7-0.6-7.6-1.9
			c-1.8-1.2-2.8-3.2-2.8-5.4s0.8-3.9,2.5-5c1.1-0.6,2.3-1,3.5-1.3c0.1,0,0.2-0.1,0.1-0.2c0.1-0.1,0.1-0.1,0-0.1
			c-2.4-1.1-3.6-2.7-3.6-4.7c0-2.7,1.7-4.6,5-5.7c0.1,0,0.2-0.1,0.1-0.2c0,0,0-0.1-0.1-0.1c-2.1-1.7-3.3-4.3-3.2-7
			c0-2.8,0.9-5,2.7-6.7s4.1-2.5,7-2.5c1.3,0,1.4,0.2,1.9-0.1c0.3-0.3,0.6-0.6,0.9-0.9c0.7-1.4,2-2.5,3.6-2.8
			c2.2-0.4,3.4,0.3,3.8,2.2c0.4,1.7-0.2,2.8-1.8,3.1c-0.5,0.1-1.1,0-1.6-0.2s-0.8-0.6-0.9-1.1c0-0.2,0-0.5,0-0.7
			c0-0.3,0.1-0.5,0-0.8c-0.1-0.5-0.4-0.7-0.9-0.6c-0.5,0.1-0.9,0.5-1.2,1c-0.1,0.2-0.2,0.4-0.3,0.6c-0.1,0.5,0.1,1,0.6,1.1
			c4.5,1.8,4.7,6.6,4.7,8.2c0.1,2.5-0.9,4.9-2.7,6.6c-1.8,1.8-4.2,2.7-6.8,2.7c-0.7,0-2-0.3-3.8-0.9c-0.3-0.1-0.6-0.2-1-0.2
			c-0.8,0-1.6,0.4-2.2,1c-0.6,0.5-1,1.3-1,2.1c0,2,1.2,3,3.6,3c1.5-0.1,3-0.2,4.5-0.5c1.4-0.3,2.9-0.4,4.3-0.4
			c0.9,0,1.8,0.1,2.7,0.3c0.3-0.3,0.6-0.7,1-1c4.4-3.6,7-9,7-14.8c0-10.7-8.7-19.3-19.3-19.3c-1.7,0-3.4,0.2-5.1,0.7
			c-6.7,1.7-11.9,7-13.6,13.8c-1.7,7.1,0.8,14.8,6.5,19.5c1.7,1.4,2.6,3.4,2.6,5.6v6.3c0,3.8,2,5.3,3.7,6.2c0.6,0.3,1,0.9,1,1.6
			c0.1,1.9,1,5.5,6.3,5.5c1.4,0,2.7-0.6,3.6-1.6c1-1.1,0.9-2.8-0.3-3.7c-0.5-0.5-1.2-0.7-1.9-0.7C46.8,76,46.2,76,45.6,76"/>
		<path id="Trazado_55_00000024685093130988872350000008736038414715166110_" class="st0" d="M47.7,62.2c-1.4,0.3-2.8,0.4-4.2,0.5
			c-0.4,0-0.8,0.1-1.1,0.4c-1.6,1.1-2.4,2.8-2.4,5.1c-0.1,1.8,0.7,3.6,2.1,4.8c1.4,1.2,3.3,1.8,5.6,1.8h0.1c3.1,0,5.7-2.5,5.9-5.6
			c0.2-3.1,0.3-6.8,0.3-6.8c0-0.2,0-0.4,0-0.6c-0.5-0.1-1.1-0.1-1.6-0.1C50.9,61.7,49.3,61.9,47.7,62.2"/>
		<path id="Trazado_56_00000176016110674055149030000013110724987130786981_" class="st0" d="M44.8,45.9c2.7,5.2,5.4,7.1,8.3,5.7
			c2.6-1.3,2.6-4.4,0.1-9.3c-2.5-5-5.2-6.8-7.9-5.4C42.6,38.2,42.4,41.2,44.8,45.9"/>
	</g>
</g>
</svg>
