<?xml version="1.0" encoding="utf-8"?>
<!-- Generator: Adobe Illustrator 26.0.1, SVG Export Plug-In . SVG Version: 6.00 Build 0)  -->
<svg version="1.1" id="Capa_1" xmlns="http://www.w3.org/2000/svg" xmlns:xlink="http://www.w3.org/1999/xlink" x="0px" y="0px"
	 viewBox="0 0 153.7 62.8" style="enable-background:new 0 0 153.7 62.8;" xml:space="preserve">
<style type="text/css">
	.st0{fill:#FF5900;}
	.st1{fill:#FFFFFF;}
	.st2{enable-background:new    ;}
	.st3{display:none;}
	.st4{display:inline;fill:#FFFFFF;}
	.st5{display:inline;fill:#FF5900;}
</style>
<g>
	<g id="Capa_1_00000047782604157151827030000014447818985916872320_">
		<g id="Grupo_14_00000066493412678471548070000016851678844304576909_" transform="translate(-22 -21)">
			<path id="Trazado_29_00000081606339938697799990000001969980044682880670_" class="st0" d="M57.7,76c-3.2,0-5.7-0.6-7.6-1.9
				c-1.8-1.2-2.8-3.2-2.8-5.4s0.8-3.9,2.5-5c1.1-0.6,2.3-1,3.5-1.3c0.1,0,0.2-0.1,0.1-0.2c0.1-0.1,0.1-0.1,0-0.1
				c-2.4-1.1-3.6-2.7-3.6-4.7c0-2.7,1.7-4.6,5-5.7c0.1,0,0.2-0.1,0.1-0.2c0,0,0-0.1-0.1-0.1c-2.1-1.7-3.3-4.3-3.2-7
				c0-2.8,0.9-5,2.7-6.7s4.1-2.5,7-2.5c1.3,0,1.4,0.2,1.9-0.1c0.3-0.3,0.6-0.6,0.9-0.9c0.7-1.4,2-2.5,3.6-2.8
				c2.2-0.4,3.4,0.3,3.8,2.2c0.4,1.7-0.2,2.8-1.8,3.1c-0.5,0.1-1.1,0-1.6-0.2s-0.8-0.6-0.9-1.1c0-0.2,0-0.5,0-0.7
				c0-0.3,0.1-0.5,0-0.8c-0.1-0.5-0.4-0.7-0.9-0.6c-0.5,0.1-0.9,0.5-1.2,1c-0.1,0.2-0.2,0.4-0.3,0.6c-0.1,0.5,0.1,1,0.6,1.1
				c4.5,1.8,4.7,6.6,4.7,8.2c0.1,2.5-0.9,4.9-2.7,6.6c-1.8,1.8-4.2,2.7-6.8,2.7c-0.7,0-2-0.3-3.8-0.9c-0.3-0.1-0.6-0.2-1-0.2
				c-0.8,0-1.6,0.4-2.2,1c-0.6,0.5-1,1.3-1,2.1c0,2,1.2,3,3.6,3c1.5-0.1,3-0.2,4.5-0.5c1.4-0.3,2.9-0.4,4.3-0.4
				c0.9,0,1.8,0.1,2.7,0.3c0.3-0.3,0.6-0.7,1-1c4.4-3.6,7-9,7-14.8c0-10.7-8.7-19.3-19.3-19.3c-1.7,0-3.4,0.2-5.1,0.7
				c-6.7,1.7-11.9,7-13.6,13.8c-1.7,7.1,0.8,14.8,6.5,19.5c1.7,1.4,2.6,3.4,2.6,5.6v6.3c0,3.8,2,5.3,3.7,6.2c0.6,0.3,1,0.9,1,1.6
				c0.1,1.9,1,5.5,6.3,5.5c1.4,0,2.7-0.6,3.6-1.6c1-1.1,0.9-2.8-0.3-3.7c-0.5-0.5-1.2-0.7-1.9-0.7C58.9,76,58.3,76,57.7,76"/>
			<path id="Trazado_55_00000096049677391293937110000010064957917377573540_" class="st0" d="M59.8,62.2c-1.4,0.3-2.8,0.4-4.2,0.5
				c-0.4,0-0.8,0.1-1.1,0.4c-1.6,1.1-2.4,2.8-2.4,5.1C52,70,52.8,71.8,54.2,73c1.4,1.2,3.3,1.8,5.6,1.8h0.1c3.1,0,5.7-2.5,5.9-5.6
				c0.2-3.1,0.3-6.8,0.3-6.8c0-0.2,0-0.4,0-0.6c-0.5-0.1-1.1-0.1-1.6-0.1C63,61.7,61.4,61.9,59.8,62.2"/>
			<path id="Trazado_56_00000027591007193789849170000004071315174807460269_" class="st0" d="M56.9,45.9c2.7,5.2,5.4,7.1,8.3,5.7
				c2.6-1.3,2.6-4.4,0.1-9.3c-2.5-5-5.2-6.8-7.9-5.4C54.7,38.2,54.5,41.2,56.9,45.9"/>
		</g>
	</g>
	<g id="Capa_2_00000118381664558296416040000006473063330326786690_">
		<path id="Trazado_33_00000036218723749480706150000016245198131668284801_" class="st1" d="M68.6,6.7v32.9c0,3,0,5.4,0,7.1
			c0,0.2,0,0.5,0,0.8c0,1.7-0.2,3.5-0.6,5.1c-0.6,2.3-1.9,4.3-3.7,5.7c-1.8,1.5-4,2.4-6.3,2.4c-1.4,0.1-2.9-0.4-3.9-1.3
			c-1-0.8-1.5-2.1-1.5-3.5c0-2.4,1.2-3.6,3.6-3.6c1,0,1.8,0.2,2.5,0.8c0.6,0.6,1,1.4,1,2.3c0,0.8-0.2,1.5-0.8,2.1
			c-0.2,0.2-0.5,0.7-0.6,1.1c0,0.4,0.4,0.6,1,0.6c1.3,0,2.3-0.8,2.9-2.5c0.2-0.8,0.5-3.5,0.5-7.9V6.4c0-1.3-0.4-2.1-1.2-2.5
			c-1-0.2-2-0.2-3.1-0.2c-0.5,0-1,0-1.4-0.1c-0.1,0-0.2-0.2-0.2-0.4c0-0.5,0.4-0.6,1.1-0.6h9.3C68.8,2.6,68.6,3.1,68.6,6.7"/>
		<path id="Trazado_34_00000106121894810190093020000005209000428362886812_" class="st1" d="M102.9,44.1c-1.2,0-2.4,0-3.6-0.2
			c-0.5-0.1-0.8-0.6-1-1.4c-0.1-1.9-0.2-3.8-0.2-5.8V19h-8.7c-0.8,0-1.3,0.1-1.3,0.4c0,0.5,0.8,0.6,2.6,0.6c0.5,0,1,0,1.4,0.1
			c0.2,0.1,0.4,0.5,0.4,1.1v2.1c0.1,1.1,0.2,2.1,0.2,3.2v9.8c0,3-0.4,5.1-1.2,6.4c-1,1.8-2.9,2.9-5,2.7c-2,0-3.5-0.8-4.2-2.5
			c-0.5-1.1-0.6-3.2-0.6-6.4V19c-1.4,0.1-2.7,0.2-4.2,0.2c-0.1,0-0.6,0-1.3-0.1C75,19,73.9,19,73,19c-0.7,0-1.1,0.1-1.1,0.5
			c0,0.5,0.6,0.6,1.7,0.5h0.8c1,0,1.5,0.2,1.7,0.5c0.1,0.2,0.2,1.1,0.2,2.6v14.4c0,1.7,0,3.5,0.1,5.1c0.1,0.7,0.5,1.4,1,2
			c1.3,1.8,3.6,2.7,6.7,2.7c3.5,0,6.2-1.3,8.1-4v3.6c0,0.4,0.1,0.5,0.4,0.5c0.1,0,0.4,0,0.5-0.1c2.7-1.3,5.7-2,8.7-2.1
			c1,0,1.4-0.2,1.4-0.5C103.7,44.3,103.4,44.1,102.9,44.1"/>
		<path id="Trazado_35_00000183238465844732576570000018342523208856539017_" class="st1" d="M136.3,33.2c-1.2-1.2-3.9-2.6-8.3-4.3
			c-2.9-1.1-4.3-2.7-4.3-4.9c0-1.3,0.5-2.5,1.4-3.3c1-1,2.3-1.4,3.6-1.3c1.4,0,2.9,0.5,4,1.4c1.2,1,2,2.3,2.5,3.7
			c0.4,1.3,0.7,1.9,1,1.9s0.5-0.1,0.5-0.4v-0.1v-0.1c-0.2-1.7-0.4-3.2-0.4-4.9c0,0-3.3-1.7-3.8-1.9c-1.2-0.5-2.5-0.7-3.8-0.7
			c-2.3,0-4.4,0.8-6,2.4c-1.5,1.5-2.5,3.7-2.4,6c0,3.6,2.4,6.2,7,8c2.4,1,3.8,1.4,4.3,1.7c0.6,0.4,1.2,0.7,1.7,1.2
			c1.1,1.1,1.7,2.5,1.5,3.9c0.1,1.3-0.5,2.6-1.4,3.6s-2.4,1.4-3.7,1.3c-2.6,0.1-5.2-1.2-6.8-3.3c-1-1.3-1.5-3-1.7-4.6
			c0-0.5-0.2-0.7-0.6-0.7c-0.4,0-0.5,0.2-0.5,0.7V47c0,0.4,0.1,0.5,0.5,0.5c0.2,0,0.5-0.2,0.7-0.7c0.2-0.8,0.7-1.2,1.3-1.2
			c0.5,0,1.1,0.1,1.4,0.5c2,1.1,3.8,1.5,5.2,1.5c2.4,0,4.6-0.8,6.4-2.6c1.8-1.7,2.7-3.9,2.7-6.3C138.7,36.5,137.8,34.6,136.3,33.2"
			/>
		<path id="Trazado_36_00000117653312916975399660000016161482624304726413_" class="st1" d="M115.2,45.8c-0.8,0-1.5,0-2.4-0.1
			c-0.2,0-0.4-0.2-0.5-0.5c-0.1-0.7-0.1-1.5-0.1-2.3V7.3c0.1-1.7,0-3.3-0.4-5c0-0.2-0.6-0.4-0.6-0.4L110,2.6
			c-1.8,0.8-3.7,1.3-5.6,1.4c-1.1,0-1.5,0.2-1.5,0.6s0.2,0.6,0.8,0.6h2.3c0.6,0,0.8,0.1,1.1,0.5c0.1,0.7,0.1,1.5,0.1,2.3v32.4
			c0,3.1,0,4.8-0.1,5c0,0.5,0.1,1.5,2.6,1.5h2C113.8,47,115,47,115,47h0.7c0.6,0,0.8-0.2,0.8-0.6C116.8,45.9,116.2,45.8,115.2,45.8"
			/>
		<g class="st2">
			<path class="st0" d="M76.9,55.2H79c1.7,0,2.7,1.1,2.7,2.6c0,1.5-1.1,2.6-2.7,2.6h-2.1V55.2z M78.9,59.9c1.3,0,2.3-0.8,2.3-2.1
				c0-1.2-0.8-2.1-2.3-2.1h-1.5v4.2h1.5V59.9z"/>
			<path class="st0" d="M88.8,59.9v0.5h-3.6v-5.1h3.6v0.5h-3v1.8h2.5V58h-2.6v1.9C85.7,59.9,88.8,59.9,88.8,59.9z"/>
			<path class="st0" d="M91.9,59.7l0.2-0.5c0.4,0.4,1.1,0.6,1.7,0.6c1,0,1.4-0.4,1.4-1c0-1.4-3.2-0.6-3.2-2.4c0-0.7,0.6-1.4,1.9-1.4
				c0.6,0,1.2,0.1,1.5,0.5l-0.2,0.5c-0.5-0.2-1-0.5-1.4-0.5c-1,0-1.3,0.5-1.3,1c0,1.4,3.1,0.6,3.1,2.4c0,0.7-0.6,1.4-1.9,1.4
				C92.9,60.3,92.2,60.1,91.9,59.7z"/>
			<path class="st0" d="M99.1,55.2h0.6v5.1h-0.6V55.2z"/>
			<path class="st0" d="M107.2,57.7h0.5v1.9c-0.5,0.5-1.2,0.6-1.9,0.6c-1.5,0-2.7-1.1-2.7-2.6s1.2-2.6,2.7-2.6
				c0.8,0,1.4,0.2,1.9,0.7l-0.4,0.6c-0.5-0.5-1-0.6-1.5-0.6c-1.3,0-2.1,1-2.1,2.1c0,1.2,1,2.1,2.1,2.1c0.5,0,1-0.1,1.3-0.4v-1.9
				H107.2z"/>
			<path class="st0" d="M115.8,55.2v5.1h-0.5l-3.3-4.2v4.2h-0.6v-5.1h0.5l3.3,4.2v-4.2H115.8z"/>
			<path class="st0" d="M119.7,55.2h0.6v5.1h-0.6V55.2z"/>
			<path class="st0" d="M128.6,55.2v5.1h-0.5l-3.3-4.2v4.2h-0.6v-5.1h0.5l3.3,4.2v-4.2H128.6z"/>
			<path class="st0" d="M136.1,57.7h0.5v1.9c-0.5,0.5-1.2,0.6-1.9,0.6c-1.5,0-2.7-1.1-2.7-2.6s1.2-2.6,2.7-2.6
				c0.8,0,1.4,0.2,1.9,0.7l-0.4,0.4c-0.5-0.5-1-0.6-1.5-0.6c-1.3,0-2.1,1-2.1,2.1c0,1.2,1,2.1,2.1,2.1c0.5,0,1-0.1,1.3-0.4v-1.7
				H136.1z"/>
		</g>
	</g>
</g>
<g id="Capa_3" class="st3">
	<path class="st4" d="M95.6,97.1v6.5c0,2.5,1.1,3.5,2.6,3.5c1.6,0,2.7-1.1,2.7-3.5v-6.5h1.4v6.4c0,3.4-1.8,4.7-4.1,4.7
		c-2.2,0-3.9-1.3-3.9-4.7V97L95.6,97.1L95.6,97.1z"/>
	<path class="st4" d="M115.3,108.1l-1.4-2.4c-0.6-0.9-0.9-1.5-1.3-2.2l0,0c-0.3,0.6-0.6,1.2-1.2,2.2l-1.3,2.4h-1.6l3.3-5.5l-3.2-5.4
		h1.6l1.4,2.6c0.4,0.7,0.7,1.3,1,1.9l0,0c0.3-0.6,0.6-1.2,1-1.9l1.5-2.6h1.6l-3.3,5.3l3.4,5.6H115.3z"/>
	<path class="st4" d="M124.6,97.1v6.5c0,2.5,1.1,3.5,2.6,3.5c1.6,0,2.7-1.1,2.7-3.5v-6.5h1.4v6.4c0,3.4-1.8,4.7-4.1,4.7
		c-2.2,0-3.9-1.3-3.9-4.7V97L124.6,97.1L124.6,97.1z"/>
	<path class="st4" d="M138.8,97.1v11h-1.4v-11H138.8z"/>
	<path class="st5" d="M112.7,103.5L112.7,103.5c-0.3,0.6-0.7,1.2-1.2,2.2l-1.3,2.4h-1.6l3.3-5.5c0,0,0.6-0.6,0.9-1l0,0
		c0.3-0.6,0.6-1.2,1-1.9l1.5-2.6h1.6l-3.3,5.3C113.5,102.5,113.2,102.8,112.7,103.5z"/>
</g>
</svg>
